<svg width="172" height="172" viewBox="0 0 172 172" fill="none" xmlns="http://www.w3.org/2000/svg">
<path d="M157.858 71.8579C165.668 79.6683 165.668 92.3316 157.858 100.142L100.142 157.858C92.3317 165.668 79.6684 165.668 71.8579 157.858L14.1421 100.142C6.33165 92.3317 6.33165 79.6684 14.1421 71.8579L71.8579 14.1421C79.6683 6.33165 92.3316 6.33165 100.142 14.1421L157.858 71.8579Z" fill="white" fill-opacity="0.5"/>
<path fill-rule="evenodd" clip-rule="evenodd" d="M62.4378 55C57.9203 55 54.58 58.8882 54.7316 63.1006C54.8734 67.1542 54.6888 72.3979 53.3467 76.6752C51.9948 80.9622 49.7195 83.6797 46 84.03V87.97C49.7195 88.317 51.9981 91.0345 53.3434 95.3248C54.6888 99.6021 54.8734 104.846 54.7284 108.896C54.58 113.112 57.9203 117 62.4378 117H108.708C113.225 117 116.565 113.112 116.414 108.896C116.272 104.846 116.457 99.6021 117.799 95.3248C119.147 91.0345 121.419 88.3203 125.139 87.97V84.03C121.419 83.6797 119.147 80.9622 117.799 76.6752C116.457 72.3946 116.272 67.1509 116.414 63.1006C116.565 58.8849 113.222 55 108.708 55H62.4378ZM99.6495 93.1651C99.6495 98.9698 95.2474 102.488 87.9436 102.488H75.5089C75.1529 102.488 74.8116 102.349 74.5599 102.102C74.3082 101.854 74.1668 101.518 74.1668 101.168V70.8283C74.1677 70.4789 74.3095 70.144 74.5611 69.8972C74.8127 69.6504 75.1535 69.5117 75.5089 69.5117H87.8743C93.9647 69.5117 97.9645 72.7546 97.9645 77.7388C97.9645 81.2346 95.2738 84.364 91.8477 84.9153V85.0969C96.5136 85.5995 99.6528 88.7775 99.6528 93.1651H99.6495ZM86.5916 73.6918H79.5021V83.5435H85.4738C90.0902 83.5435 92.6358 81.7146 92.6358 78.4458C92.6358 75.3845 90.4463 73.6918 86.5916 73.6918ZM79.5021 87.4512V98.305H86.8554C91.6598 98.305 94.2087 96.4079 94.2087 92.844C94.2087 89.2769 91.5905 87.4512 86.5454 87.4512H79.5021V87.4512Z" fill="#141414"/>
</svg>
