<svg width="172" height="172" viewBox="0 0 172 172" fill="none" xmlns="http://www.w3.org/2000/svg">
<path d="M157.858 71.8579C165.668 79.6683 165.668 92.3316 157.858 100.142L100.142 157.858C92.3317 165.668 79.6684 165.668 71.8579 157.858L14.1421 100.142C6.33166 92.3317 6.33165 79.6684 14.1421 71.8579L71.8579 14.1421C79.6683 6.33166 92.3316 6.33165 100.142 14.1421L157.858 71.8579Z" fill="#F58529"/>
<g clip-path="url(#clip0_12_38)">
<rect x="68" y="64" width="36" height="45" fill="white"/>
<path d="M56.0824 63.0821C55.9441 59.1204 59.0333 55.5004 63.1595 55.5C63.1597 55.5 63.1599 55.5 63.1601 55.5H108.65C112.776 55.5 115.865 59.1207 115.727 63.0821C115.585 67.1474 115.766 72.4584 117.111 76.8147L117.589 76.6672L117.111 76.8147C118.408 81.014 120.622 83.91 124.304 84.4632V87.5161C120.622 88.0691 118.408 90.9657 117.111 95.1649L117.111 95.165C115.766 99.5219 115.585 104.832 115.727 108.897C115.865 112.859 112.776 116.479 108.65 116.479H63.1607C59.0336 116.479 55.9441 112.859 56.0824 108.897C56.2244 104.832 56.0433 99.5218 54.6983 95.165C53.4018 90.9648 51.1818 88.0693 47.5 87.5161V84.4632C51.1818 83.91 53.4017 81.0145 54.6983 76.8147L54.2206 76.6672L54.6983 76.8147C56.0433 72.4578 56.2244 67.1471 56.0824 63.0821ZM76.0116 102.973H76.0117H88.2385C91.9049 102.973 94.9066 102.076 97.0018 100.377C99.11 98.668 100.249 96.1889 100.249 93.1522C100.249 89.0553 97.7022 85.9634 93.8303 84.9098C96.6045 83.7237 98.5877 80.8654 98.5877 77.7306C98.5877 75.0976 97.5435 72.8979 95.6929 71.3652C93.8513 69.8401 91.2494 69.0056 88.1686 69.0056H76.0121C75.7732 69.0056 75.5366 69.0526 75.316 69.1441C75.0953 69.2355 74.8948 69.3695 74.7259 69.5384C74.557 69.7073 74.423 69.9079 74.3317 70.1286C74.2403 70.3493 74.1933 70.5858 74.1933 70.8246C74.1933 70.8246 74.1933 70.8247 74.1933 70.8247V101.155C74.1933 101.637 74.3849 102.1 74.7259 102.441C75.0669 102.782 75.5293 102.973 76.0116 102.973ZM80.4339 83.0331V74.186H86.9049H86.9052C88.735 74.186 90.0942 74.5953 90.9862 75.3053C91.8608 76.0014 92.3475 77.0352 92.3475 78.4381C92.3475 79.9272 91.7863 81.0436 90.735 81.806C89.6601 82.5857 88.019 83.0331 85.8056 83.0331H80.4339ZM87.1617 97.7918H80.4339V87.9397H86.8578C89.2902 87.9397 91.0518 88.3903 92.1935 89.206C93.3061 90.0008 93.8908 91.1858 93.8908 92.8319C93.8908 94.4842 93.3182 95.6896 92.2468 96.4994C91.152 97.3268 89.4696 97.7918 87.1617 97.7918Z" fill="#7E13F8" stroke="#131313"/>
</g>
<defs>
<clipPath id="clip0_12_38">
<rect width="77.8039" height="62" fill="white" transform="translate(47 55)"/>
</clipPath>
</defs>
</svg>
