<svg width="172" height="172" viewBox="0 0 172 172" fill="none" xmlns="http://www.w3.org/2000/svg">
<path d="M157.858 71.8579C165.668 79.6683 165.668 92.3316 157.858 100.142L100.142 157.858C92.3317 165.668 79.6684 165.668 71.8579 157.858L14.1421 100.142C6.33166 92.3317 6.33165 79.6684 14.1421 71.8579L71.8579 14.1421C79.6683 6.33166 92.3316 6.33165 100.142 14.1421L157.858 71.8579Z" fill="#F58529"/>
<path d="M79.9201 76.7222L88.9317 84.5556M73.9124 53.2222H67.9046C66.3113 53.2222 64.7832 53.7724 63.6565 54.7518C62.5299 55.7311 61.8969 57.0594 61.8969 58.4444V89.7778C61.8969 91.1628 62.5299 92.4911 63.6565 93.4704C64.7832 94.4498 66.3113 95 67.9046 95H97.9433C99.5367 95 101.065 94.4498 102.191 93.4704C103.318 92.4911 103.951 91.1628 103.951 89.7778V87.1667L73.9124 53.2222ZM73.9124 53.2222C73.9124 54.6072 74.5453 55.9355 75.672 56.9149C76.7987 57.8942 78.3268 58.4444 79.9201 58.4444H85.9278C87.5212 58.4444 89.0493 57.8942 90.1759 56.9149C91.3026 55.9355 91.9356 54.6072 91.9356 53.2222H73.9124ZM73.9124 53.2222C73.9124 51.8372 74.5453 50.5089 75.672 49.5296C76.7987 48.5502 78.3268 48 79.9201 48H85.9278C87.5212 48 89.0493 48.5502 90.1759 49.5296C91.3026 50.5089 91.9356 51.8372 91.9356 53.2222H73.9124ZM91.9356 53.2222H97.9433C99.5367 53.2222 101.065 53.7724 102.191 54.7518C103.318 55.7311 103.951 57.0594 103.951 58.4444V66.2778L91.9356 53.2222ZM109.959 76.7222H79.9201H109.959ZM79.9201 76.7222L88.9317 68.8889L79.9201 76.7222Z" stroke="white" stroke-width="3" stroke-linecap="round" stroke-linejoin="round"/>
<path d="M41.2487 116.154C40.3901 116.154 39.6201 115.977 38.9387 115.622C38.2667 115.258 37.7347 114.763 37.3427 114.138C36.9507 113.503 36.7547 112.785 36.7547 111.982C36.7547 111.17 36.9507 110.451 37.3427 109.826C37.7347 109.191 38.2667 108.697 38.9387 108.342C39.6201 107.978 40.3901 107.796 41.2487 107.796C42.0047 107.796 42.6674 107.913 43.2367 108.146C43.8154 108.37 44.3101 108.743 44.7207 109.266L43.2927 110.568C43.0221 110.241 42.7234 109.999 42.3967 109.84C42.0701 109.681 41.7154 109.602 41.3327 109.602C40.8754 109.602 40.4694 109.705 40.1147 109.91C39.7601 110.106 39.4801 110.381 39.2747 110.736C39.0787 111.091 38.9807 111.506 38.9807 111.982C38.9807 112.449 39.0787 112.859 39.2747 113.214C39.4801 113.569 39.7601 113.849 40.1147 114.054C40.4694 114.25 40.8754 114.348 41.3327 114.348C41.7154 114.348 42.0701 114.269 42.3967 114.11C42.7234 113.951 43.0221 113.709 43.2927 113.382L44.7207 114.684C44.3101 115.197 43.8154 115.571 43.2367 115.804C42.6674 116.037 42.0047 116.154 41.2487 116.154ZM46.1064 116V107.95H48.3184V114.278H52.2524V116H46.1064ZM53.4482 116V107.95H55.6602V116H53.4482ZM57.7959 116V107.95H61.4639C62.2105 107.95 62.8499 108.071 63.3819 108.314C63.9232 108.547 64.3432 108.883 64.6419 109.322C64.9405 109.761 65.0899 110.293 65.0899 110.918C65.0899 111.525 64.9405 112.052 64.6419 112.5C64.3432 112.948 63.9232 113.289 63.3819 113.522C62.8499 113.755 62.2105 113.872 61.4639 113.872H59.0139L60.0079 112.906V116H57.7959ZM60.0079 113.158L59.1959 112.164H61.3099C61.8232 112.164 62.2105 112.057 62.4719 111.842C62.7332 111.618 62.8639 111.31 62.8639 110.918C62.8639 110.517 62.7332 110.209 62.4719 109.994C62.2105 109.779 61.8232 109.672 61.3099 109.672H59.1959L60.0079 108.678V113.158ZM66.7099 116V107.95H70.8259C71.8899 107.95 72.6833 108.146 73.2059 108.538C73.7379 108.93 74.0039 109.439 74.0039 110.064C74.0039 110.68 73.7799 111.179 73.3319 111.562C72.8933 111.945 72.2773 112.136 71.4839 112.136L71.7079 111.604C72.5386 111.604 73.1966 111.795 73.6819 112.178C74.1673 112.551 74.4099 113.088 74.4099 113.788C74.4099 114.479 74.1253 115.02 73.5559 115.412C72.9866 115.804 72.1513 116 71.0499 116H66.7099ZM68.8939 114.446H70.8959C71.3159 114.446 71.6333 114.371 71.8479 114.222C72.0719 114.073 72.1839 113.853 72.1839 113.564C72.1839 113.265 72.0719 113.046 71.8479 112.906C71.6333 112.757 71.3159 112.682 70.8959 112.682H68.6699V111.198H70.5459C70.9566 111.198 71.2646 111.128 71.4699 110.988C71.6846 110.848 71.7919 110.638 71.7919 110.358C71.7919 110.078 71.6846 109.868 71.4699 109.728C71.2646 109.579 70.9566 109.504 70.5459 109.504H68.8939V114.446ZM79.8588 116.154C78.9908 116.154 78.2161 115.977 77.5348 115.622C76.8534 115.258 76.3168 114.759 75.9248 114.124C75.5328 113.489 75.3368 112.771 75.3368 111.968C75.3368 111.165 75.5328 110.451 75.9248 109.826C76.3168 109.201 76.8534 108.706 77.5348 108.342C78.2161 107.978 78.9908 107.796 79.8588 107.796C80.7268 107.796 81.5014 107.978 82.1828 108.342C82.8641 108.706 83.4008 109.201 83.7928 109.826C84.1848 110.451 84.3808 111.165 84.3808 111.968C84.3808 112.771 84.1848 113.489 83.7928 114.124C83.4008 114.759 82.8641 115.258 82.1828 115.622C81.5014 115.977 80.7268 116.154 79.8588 116.154ZM79.8588 114.348C80.3068 114.348 80.6988 114.25 81.0348 114.054C81.3801 113.849 81.6508 113.564 81.8468 113.2C82.0428 112.836 82.1408 112.43 82.1408 111.982C82.1408 111.515 82.0428 111.105 81.8468 110.75C81.6508 110.395 81.3801 110.115 81.0348 109.91C80.6988 109.705 80.3068 109.602 79.8588 109.602C79.4201 109.602 79.0281 109.705 78.6828 109.91C78.3374 110.115 78.0621 110.395 77.8568 110.75C77.6608 111.105 77.5628 111.511 77.5628 111.968C77.5628 112.425 77.6608 112.836 77.8568 113.2C78.0621 113.564 78.3374 113.849 78.6828 114.054C79.0281 114.25 79.4201 114.348 79.8588 114.348ZM84.6055 116L88.2175 107.95H90.4015L94.0275 116H91.8435L88.9455 109.014H89.6875L86.7475 116H84.6055ZM86.5795 114.404L87.1535 112.808H91.1295L91.7035 114.404H86.5795ZM94.9834 116V107.95H98.6514C99.398 107.95 100.037 108.071 100.569 108.314C101.111 108.547 101.531 108.883 101.829 109.322C102.128 109.761 102.277 110.293 102.277 110.918C102.277 111.525 102.128 112.047 101.829 112.486C101.531 112.925 101.111 113.261 100.569 113.494C100.037 113.727 99.398 113.844 98.6514 113.844H96.2014L97.1954 112.906V116H94.9834ZM100.051 116L98.0214 113.074H100.373L102.431 116H100.051ZM97.1954 113.158L96.3834 112.164H98.4974C99.0107 112.164 99.398 112.057 99.6594 111.842C99.9207 111.618 100.051 111.31 100.051 110.918C100.051 110.517 99.9207 110.209 99.6594 109.994C99.398 109.779 99.0107 109.672 98.4974 109.672H96.3834L97.1954 108.678V113.158ZM103.993 116V107.95H107.787C108.711 107.95 109.514 108.113 110.195 108.44C110.886 108.767 111.418 109.233 111.791 109.84C112.174 110.437 112.365 111.151 112.365 111.982C112.365 112.803 112.174 113.517 111.791 114.124C111.418 114.721 110.886 115.183 110.195 115.51C109.514 115.837 108.711 116 107.787 116H103.993ZM106.205 114.264H107.717C108.212 114.264 108.636 114.175 108.991 113.998C109.355 113.821 109.635 113.564 109.831 113.228C110.027 112.883 110.125 112.467 110.125 111.982C110.125 111.487 110.027 111.072 109.831 110.736C109.635 110.391 109.355 110.129 108.991 109.952C108.636 109.775 108.212 109.686 107.717 109.686H106.205V114.264ZM114.676 116.112C114.284 116.112 113.962 115.986 113.71 115.734C113.458 115.482 113.332 115.183 113.332 114.838C113.332 114.483 113.458 114.189 113.71 113.956C113.962 113.713 114.284 113.592 114.676 113.592C115.068 113.592 115.386 113.713 115.628 113.956C115.88 114.189 116.006 114.483 116.006 114.838C116.006 115.183 115.88 115.482 115.628 115.734C115.386 115.986 115.068 116.112 114.676 116.112ZM119.793 116.154C119.195 116.154 118.654 116.051 118.169 115.846C117.693 115.641 117.305 115.337 117.007 114.936L118.295 113.564C118.491 113.825 118.705 114.031 118.939 114.18C119.172 114.32 119.424 114.39 119.695 114.39C120.376 114.39 120.717 113.984 120.717 113.172V109.658H117.903V107.95H122.915V112.962C122.915 114.045 122.644 114.847 122.103 115.37C121.571 115.893 120.801 116.154 119.793 116.154ZM131.307 113.55C131.307 114.054 131.162 114.502 130.873 114.894C130.593 115.286 130.182 115.594 129.641 115.818C129.109 116.042 128.451 116.154 127.667 116.154C127.023 116.154 126.388 116.075 125.763 115.916C125.147 115.757 124.648 115.547 124.265 115.286L125.035 113.648C125.399 113.891 125.824 114.082 126.309 114.222C126.794 114.362 127.289 114.432 127.793 114.432C128.288 114.432 128.633 114.362 128.829 114.222C129.025 114.082 129.123 113.919 129.123 113.732C129.123 113.545 129.034 113.396 128.857 113.284C128.689 113.172 128.465 113.083 128.185 113.018C127.914 112.943 127.611 112.873 127.275 112.808C126.948 112.743 126.617 112.659 126.281 112.556C125.954 112.453 125.651 112.318 125.371 112.15C125.1 111.973 124.876 111.744 124.699 111.464C124.531 111.175 124.447 110.815 124.447 110.386C124.447 109.882 124.592 109.439 124.881 109.056C125.18 108.664 125.6 108.356 126.141 108.132C126.682 107.908 127.326 107.796 128.073 107.796C128.577 107.796 129.09 107.852 129.613 107.964C130.136 108.076 130.593 108.253 130.985 108.496L130.271 110.134C129.907 109.91 129.529 109.751 129.137 109.658C128.754 109.565 128.372 109.518 127.989 109.518C127.522 109.518 127.182 109.588 126.967 109.728C126.752 109.868 126.645 110.045 126.645 110.26C126.645 110.447 126.729 110.596 126.897 110.708C127.065 110.82 127.284 110.913 127.555 110.988C127.835 111.053 128.143 111.119 128.479 111.184C128.815 111.249 129.146 111.333 129.473 111.436C129.8 111.529 130.103 111.66 130.383 111.828C130.663 111.996 130.887 112.22 131.055 112.5C131.223 112.771 131.307 113.121 131.307 113.55Z" fill="white"/>
</svg>
