<svg width="156" height="156" viewBox="0 0 156 156" fill="none" xmlns="http://www.w3.org/2000/svg">
<path d="M149.858 63.8579C157.668 71.6683 157.668 84.3316 149.858 92.1421L92.1421 149.858C84.3317 157.668 71.6684 157.668 63.8579 149.858L6.14214 92.1421C-1.66835 84.3317 -1.66835 71.6684 6.14214 63.8579L63.8579 6.14214C71.6683 -1.66835 84.3316 -1.66835 92.1421 6.14214L149.858 63.8579Z" fill="white" fill-opacity="0.5"/>
<path d="M118.812 40L107.904 101.607L69.8442 115L37 101.607L40.3407 85.7366H54.3169L52.9534 92.5335L72.7928 99.9665L95.6491 92.5335L98.8534 76.2779H42.028L44.7551 62.5502H101.632L103.421 53.7277H46.5959L49.3741 40H118.812V40Z" fill="#131313"/>
</svg>
