<svg width="172" height="172" viewBox="0 0 172 172" fill="none" xmlns="http://www.w3.org/2000/svg">
<path d="M157.858 71.8579C165.668 79.6683 165.668 92.3316 157.858 100.142L100.142 157.858C92.3317 165.668 79.6684 165.668 71.8579 157.858L14.1421 100.142C6.33166 92.3317 6.33165 79.6684 14.1421 71.8579L71.8579 14.1421C79.6683 6.33166 92.3316 6.33165 100.142 14.1421L157.858 71.8579Z" fill="#F58529"/>
<path d="M85.9682 115.231L65.009 109.413L60.3155 56.75H111.684L106.985 109.404L85.9682 115.231Z" fill="#1572B6" stroke="#131313"/>
<path d="M86 111.198L103.361 106.385L107.445 60.6296H86V111.198Z" fill="#33A9DC"/>
<path d="M86 80.0308H94.6913L95.2905 73.3052H86V66.7368H102.469L102.312 68.4984L100.699 86.5992H86V80.0308V80.0308Z" fill="white"/>
<path d="M86.0404 97.0882L86.0106 97.0967L78.6964 95.1205L78.2289 89.8823H71.635L72.5551 100.195L86.0085 103.931L86.0404 103.922V97.0882V97.0882Z" fill="#EBEBEB"/>
<path d="M94.1323 86.3209L93.3418 95.1163L86.017 97.0925V103.927L99.481 100.195L99.5808 99.0858L100.722 86.3209H94.1323V86.3209Z" fill="white"/>
<path d="M86.0234 66.7368V73.3052H70.1581L70.0264 71.8283L69.7268 68.4984L69.5695 66.7368H86.0234V66.7368ZM86 80.0308V86.5992H78.7771L78.6454 85.1223L78.3479 81.7924L78.1906 80.0308H86V80.0308Z" fill="#EBEBEB"/>
</svg>
