<svg width="172" height="172" viewBox="0 0 172 172" fill="none" xmlns="http://www.w3.org/2000/svg">
<path d="M157.858 71.8579C165.668 79.6683 165.668 92.3316 157.858 100.142L100.142 157.858C92.3317 165.668 79.6684 165.668 71.8579 157.858L14.1421 100.142C6.33166 92.3317 6.33165 79.6684 14.1421 71.8579L71.8579 14.1421C79.6683 6.33166 92.3316 6.33165 100.142 14.1421L157.858 71.8579Z" fill="#F58529"/>
<g clip-path="url(#clip0_12_31)">
<path d="M85.1667 106.667C85.1667 112.095 80.7612 116.5 75.3333 116.5C69.9055 116.5 65.5 112.095 65.5 106.667C65.5 101.239 69.9055 96.8334 75.3333 96.8334H85.1667V106.667Z" fill="#0ACF83" stroke="#131313"/>
<path d="M65.5 86C65.5 80.5721 69.9055 76.1666 75.3333 76.1666H85.1667V95.8333H75.3333C69.9055 95.8333 65.5 91.4278 65.5 86Z" fill="#A259FF" stroke="#131313"/>
<path d="M65.5 65.3333C65.5 59.9055 69.9055 55.5 75.3333 55.5H85.1667V75.1667H75.3333C69.9055 75.1667 65.5 70.7612 65.5 65.3333Z" fill="#F24E1E" stroke="#131313"/>
<path d="M86.1667 55.5H96C101.428 55.5 105.833 59.9055 105.833 65.3333C105.833 70.7612 101.428 75.1667 96 75.1667H86.1667V55.5Z" fill="#FF7262" stroke="#131313"/>
<path d="M105.833 86C105.833 91.4278 101.428 95.8333 96 95.8333C90.5722 95.8333 86.1667 91.4278 86.1667 86C86.1667 80.5721 90.5722 76.1666 96 76.1666C101.428 76.1666 105.833 80.5721 105.833 86Z" fill="#1ABCFE" stroke="#131313"/>
</g>
<defs>
<clipPath id="clip0_12_31">
<rect width="41.3333" height="62" fill="white" transform="translate(65 55)"/>
</clipPath>
</defs>
</svg>
