<svg width="172" height="172" viewBox="0 0 172 172" fill="none" xmlns="http://www.w3.org/2000/svg">
<path d="M157.858 71.8579C165.668 79.6683 165.668 92.3316 157.858 100.142L100.142 157.858C92.3317 165.668 79.6684 165.668 71.8579 157.858L14.1421 100.142C6.33165 92.3317 6.33165 79.6684 14.1421 71.8579L71.8579 14.1421C79.6683 6.33165 92.3316 6.33165 100.142 14.1421L157.858 71.8579Z" fill="white" fill-opacity="0.5"/>
<path fill-rule="evenodd" clip-rule="evenodd" d="M76.6121 55C70.1762 55 65.0002 60.3036 65.0002 66.8007C65.0002 70.7506 66.9149 74.2588 69.858 76.4003C68.3411 77.5166 67.1116 78.9663 66.268 80.6334C65.4245 82.3004 64.9902 84.1384 65.0002 86C65.0002 89.9525 66.9149 93.4581 69.858 95.5997C68.3411 96.7159 67.1116 98.1656 66.268 99.8327C65.4245 101.5 64.9902 103.338 65.0002 105.199C65.0002 111.696 70.1762 117 76.6121 117C83.0454 117 88.224 111.696 88.224 105.199V95.2225C90.258 96.8882 92.8218 97.8013 95.47 97.8032C101.906 97.8007 107.082 92.4971 107.082 86C107.093 84.1383 106.659 82.3001 105.815 80.6329C104.971 78.9658 103.741 77.5161 102.224 76.4003C103.741 75.2841 104.97 73.8344 105.814 72.1673C106.658 70.5003 107.092 68.6623 107.082 66.8007C107.082 60.3036 101.906 55 95.47 55H76.6121V55ZM69.3635 66.8007C69.3635 62.6906 72.6301 59.3994 76.6121 59.3994H83.8581V74.2019H76.6121C72.6301 74.2019 69.3635 70.9082 69.3635 66.8007V66.8007ZM95.47 74.1993H88.224V59.3968H95.47C99.4546 59.3968 102.719 62.6906 102.719 66.8007C102.719 70.9082 99.4546 74.1993 95.47 74.1993ZM69.3662 86C69.3662 81.8925 72.6327 78.5987 76.6147 78.5987H83.8607V93.4012H76.6121C72.6275 93.4012 69.3635 90.1075 69.3635 86H69.3662ZM88.224 86C88.224 81.8925 91.4906 78.5987 95.4726 78.5987C99.4573 78.5987 102.721 81.8899 102.721 86C102.721 90.1075 99.4573 93.4012 95.4726 93.4012C91.4906 93.4012 88.2267 90.1101 88.2267 86H88.224ZM69.3662 105.199C69.3662 101.092 72.6327 97.8007 76.6147 97.8007H83.8607V105.199C83.8607 109.309 80.5994 112.601 76.6147 112.601C72.6327 112.601 69.3662 109.309 69.3662 105.199Z" fill="#131313"/>
</svg>
