<svg width="172" height="172" viewBox="0 0 172 172" fill="none" xmlns="http://www.w3.org/2000/svg">
<path d="M157.858 71.8579C165.668 79.6683 165.668 92.3316 157.858 100.142L100.142 157.858C92.3317 165.668 79.6684 165.668 71.8579 157.858L14.1421 100.142C6.33165 92.3317 6.33165 79.6684 14.1421 71.8579L71.8579 14.1421C79.6683 6.33165 92.3316 6.33165 100.142 14.1421L157.858 71.8579Z" fill="white" fill-opacity="0.5"/>
<path d="M58 55H113.232L108.207 110.702L85.5547 117L63.032 110.702L58 55V55ZM76.4915 80.1849L75.884 73.1661L102.336 73.173L102.944 66.4025L68.2852 66.3956L70.1182 87.083H94.1192L93.2659 95.9332L85.6144 98.0096L77.8399 95.9229L77.3448 90.4734H70.4834L71.3507 101.245L85.6144 104.99L99.7587 101.265L101.718 80.1884H76.4915V80.1849V80.1849Z" fill="#111111"/>
</svg>
