<svg width="172" height="172" viewBox="0 0 172 172" fill="none" xmlns="http://www.w3.org/2000/svg">
<path d="M157.858 71.8579C165.668 79.6683 165.668 92.3316 157.858 100.142L100.142 157.858C92.3317 165.668 79.6684 165.668 71.8579 157.858L14.1421 100.142C6.33166 92.3317 6.33165 79.6684 14.1421 71.8579L71.8579 14.1421C79.6683 6.33166 92.3316 6.33165 100.142 14.1421L157.858 71.8579Z" fill="#F58529"/>
<path d="M85.9682 115.231L65.009 109.413L60.3134 56.75H111.686L106.985 109.404L85.9682 115.231Z" fill="#E44F26" stroke="#131313"/>
<path d="M86 111.198L103.361 106.385L107.445 60.6296H86V111.198Z" fill="#F1662A"/>
<path d="M86 80.4899H77.3087L76.7095 73.7643H86V67.1959H69.5312L69.6885 68.9597L71.3014 87.0583H86V80.4899V80.4899ZM86 97.5473L85.9703 97.5558L78.656 95.5817L78.1885 90.3435H71.5946L72.5148 100.654L85.9703 104.39L86 104.381V97.5473Z" fill="#EBEBEB"/>
<path d="M85.9766 80.4899V87.0583H94.0644L93.3036 95.5774L85.9766 97.5537V104.388L99.4427 100.654L99.5405 99.5448L101.083 82.2537L101.245 80.4899H85.9766V80.4899ZM85.9766 67.1959V73.7643H101.842L101.974 72.2895L102.273 68.9597L102.43 67.1959H85.9766V67.1959Z" fill="white"/>
</svg>
