<svg width="172" height="172" viewBox="0 0 172 172" fill="none" xmlns="http://www.w3.org/2000/svg">
<path d="M157.858 71.8579C165.668 79.6683 165.668 92.3316 157.858 100.142L100.142 157.858C92.3317 165.668 79.6684 165.668 71.8579 157.858L14.1421 100.142C6.33165 92.3317 6.33165 79.6684 14.1421 71.8579L71.8579 14.1421C79.6683 6.33165 92.3316 6.33165 100.142 14.1421L157.858 71.8579Z" fill="white" fill-opacity="0.5"/>
<path d="M109.357 54H60.6429C56.9754 54 54 57.0234 54 60.75V110.25C54 113.977 56.9754 117 60.6429 117H109.357C113.025 117 116 113.977 116 110.25V60.75C116 57.0234 113.025 54 109.357 54ZM87.7402 103.134C87.7402 109.266 84.1973 112.064 79.0353 112.064C74.3714 112.064 71.6728 109.617 70.2888 106.65L75.0357 103.739C75.9491 105.384 76.7795 106.777 78.7862 106.777C80.696 106.777 81.9138 106.017 81.9138 103.05V82.9266H87.7402V103.134V103.134ZM101.524 112.064C96.1129 112.064 92.6116 109.448 90.9094 106.017L95.6562 103.233C96.9018 105.3 98.5348 106.833 101.4 106.833C103.808 106.833 105.358 105.609 105.358 103.908C105.358 101.883 103.78 101.166 101.109 99.9703L99.6558 99.3375C95.4487 97.5234 92.667 95.2312 92.667 90.4078C92.667 85.9641 96.0022 82.5891 101.192 82.5891C104.901 82.5891 107.558 83.8969 109.468 87.3281L104.929 90.2812C103.932 88.4672 102.853 87.75 101.178 87.75C99.4759 87.75 98.3964 88.8469 98.3964 90.2812C98.3964 92.0531 99.4759 92.7703 101.981 93.8813L103.434 94.5141C108.388 96.6656 111.17 98.8734 111.17 103.823C111.17 109.139 107.046 112.064 101.524 112.064V112.064Z" fill="#131313"/>
</svg>
