<svg width="172" height="172" viewBox="0 0 172 172" fill="none" xmlns="http://www.w3.org/2000/svg">
<g clip-path="url(#clip0_12_45)">
<path d="M157.858 71.8579C165.668 79.6683 165.668 92.3316 157.858 100.142L100.142 157.858C92.3317 165.668 79.6684 165.668 71.8579 157.858L14.1421 100.142C6.33166 92.3317 6.33165 79.6684 14.1421 71.8579L71.8579 14.1421C79.6683 6.33166 92.3316 6.33165 100.142 14.1421L157.858 71.8579Z" fill="#F58529"/>
<g clip-path="url(#clip1_12_45)">
<path d="M55 55H117V117H55V55Z" fill="#F7DF1E"/>
<path d="M71.3021 106.812L76.0466 103.94C76.962 105.563 77.7947 106.936 79.792 106.936C81.7065 106.936 82.9138 106.188 82.9138 103.275V83.4641H88.7401V103.357C88.7401 109.391 85.2027 112.138 80.0417 112.138C75.3808 112.138 72.6753 109.724 71.3019 106.811M91.9048 106.187L96.6487 103.441C97.8977 105.48 99.5208 106.978 102.392 106.978C104.807 106.978 106.346 105.771 106.346 104.106C106.346 102.109 104.764 101.401 102.101 100.236L100.645 99.6115C96.4409 97.8224 93.6526 95.5749 93.6526 90.8305C93.6526 86.4605 96.982 83.1309 102.184 83.1309C105.888 83.1309 108.552 84.4212 110.466 87.7922L105.93 90.7058C104.931 88.9162 103.849 88.2088 102.184 88.2088C100.478 88.2088 99.3956 89.2909 99.3956 90.7058C99.3956 92.4536 100.478 93.1615 102.975 94.2436L104.431 94.8678C109.384 96.9905 112.172 99.1545 112.172 104.023C112.172 109.268 108.052 112.139 102.517 112.139C97.1067 112.139 93.6107 109.559 91.9045 106.188" fill="black"/>
</g>
<rect x="55.5" y="55.5" width="61" height="61" rx="5.5" stroke="#131313"/>
</g>
<defs>
<clipPath id="clip0_12_45">
<rect width="172" height="172" fill="white"/>
</clipPath>
<clipPath id="clip1_12_45">
<rect x="55" y="55" width="62" height="62" rx="6" fill="white"/>
</clipPath>
</defs>
</svg>
