<svg width="172" height="172" viewBox="0 0 172 172" fill="none" xmlns="http://www.w3.org/2000/svg">
<path d="M157.858 71.8579C165.668 79.6683 165.668 92.3316 157.858 100.142L100.142 157.858C92.3317 165.668 79.6684 165.668 71.8579 157.858L14.1421 100.142C6.33165 92.3317 6.33165 79.6684 14.1421 71.8579L71.8579 14.1421C79.6683 6.33165 92.3316 6.33165 100.142 14.1421L157.858 71.8579Z" fill="white" fill-opacity="0.5"/>
<path d="M58.9688 76.6459C58.3509 76.6459 57.7909 76.5397 57.2889 76.3273C56.7965 76.1149 56.3958 75.8011 56.0868 75.3859L57.4192 73.9667C57.622 74.237 57.844 74.4494 58.0854 74.6039C58.3268 74.7487 58.5875 74.8211 58.8674 74.8211C59.5722 74.8211 59.9246 74.4012 59.9246 73.5612V69.9261H57.0137V68.1593H62.1984V73.344C62.1984 74.4639 61.9184 75.2942 61.3584 75.8349C60.8081 76.3756 60.0115 76.6459 58.9688 76.6459Z" fill="#131313"/>
<path d="M68.418 76.6459C67.5201 76.6459 66.7188 76.4625 66.014 76.0956C65.3092 75.719 64.754 75.2025 64.3485 74.546C63.943 73.8895 63.7403 73.146 63.7403 72.3157C63.7403 71.4854 63.943 70.7468 64.3485 70.0999C64.754 69.4531 65.3092 68.9413 66.014 68.5648C66.7188 68.1883 67.5201 68 68.418 68C69.3159 68 70.1173 68.1883 70.8221 68.5648C71.5269 68.9413 72.082 69.4531 72.4875 70.0999C72.8931 70.7468 73.0958 71.4854 73.0958 72.3157C73.0958 73.146 72.8931 73.8895 72.4875 74.546C72.082 75.2025 71.5269 75.719 70.8221 76.0956C70.1173 76.4625 69.3159 76.6459 68.418 76.6459ZM71.2131 78.4707C70.7304 78.4707 70.2862 78.4031 69.8807 78.2679C69.4849 78.1424 69.0794 77.9155 68.6642 77.5873C68.2587 77.2686 67.7953 76.8342 67.2739 76.2838L69.678 75.7046C69.8904 75.9942 70.0738 76.2211 70.2283 76.3852C70.3924 76.5494 70.5566 76.6652 70.7207 76.7328C70.8848 76.8004 71.0635 76.8342 71.2566 76.8342C71.72 76.8342 72.14 76.6459 72.5165 76.2694L73.5448 77.4714C73.2648 77.8093 72.9268 78.0603 72.531 78.2245C72.1351 78.3886 71.6959 78.4707 71.2131 78.4707ZM68.418 74.7777C68.8815 74.7777 69.287 74.6763 69.6345 74.4736C69.9918 74.2612 70.2718 73.9667 70.4745 73.5902C70.6773 73.2136 70.7786 72.7888 70.7786 72.3157C70.7786 71.8426 70.6773 71.4226 70.4745 71.0558C70.2718 70.6889 69.9918 70.3992 69.6345 70.1868C69.287 69.9744 68.8815 69.8682 68.418 69.8682C67.9643 69.8682 67.5588 69.9744 67.2015 70.1868C66.8443 70.3992 66.5595 70.6889 66.3471 71.0558C66.1443 71.4226 66.0429 71.8426 66.0429 72.3157C66.0429 72.7888 66.1443 73.2136 66.3471 73.5902C66.5595 73.9667 66.8443 74.2612 67.2015 74.4736C67.5588 74.6763 67.9643 74.7777 68.418 74.7777Z" fill="#131313"/>
<path d="M78.5675 76.6459C77.7468 76.6459 77.042 76.4963 76.4531 76.197C75.8641 75.8977 75.4104 75.468 75.0918 74.908C74.7828 74.3384 74.6283 73.6674 74.6283 72.895V68.1593H76.9165V72.8226C76.9165 73.4695 77.0613 73.957 77.351 74.2853C77.6406 74.6136 78.0558 74.7777 78.5965 74.7777C79.1371 74.7777 79.5475 74.6136 79.8274 74.2853C80.1074 73.957 80.2474 73.4695 80.2474 72.8226V68.1593H82.5067V72.895C82.5067 73.6674 82.3522 74.3384 82.0432 74.908C81.7343 75.468 81.2853 75.8977 80.6964 76.197C80.1074 76.4963 79.3978 76.6459 78.5675 76.6459Z" fill="#131313"/>
<path d="M86.671 71.4323H90.6971V73.0978H86.671V71.4323ZM86.9027 74.7342H91.3488V76.4866H84.6435V68.1593H91.1895V69.9117H86.9027V74.7342Z" fill="#131313"/>
<path d="M93.016 76.4866V68.1593H96.8104C97.5828 68.1593 98.2441 68.2848 98.7944 68.5358C99.3544 68.7772 99.7889 69.1248 100.098 69.5786C100.407 70.0323 100.561 70.5827 100.561 71.2295C100.561 71.8571 100.407 72.3978 100.098 72.8516C99.7889 73.3053 99.3544 73.6529 98.7944 73.8943C98.2441 74.1356 97.5828 74.2563 96.8104 74.2563H94.276L95.3042 73.286V76.4866H93.016ZM98.2586 76.4866L96.1587 73.4598H98.5917L100.721 76.4866H98.2586ZM95.3042 73.5467L94.4643 72.5185H96.6511C97.1821 72.5185 97.5828 72.4074 97.8531 72.1854C98.1234 71.9537 98.2586 71.635 98.2586 71.2295C98.2586 70.8144 98.1234 70.4958 97.8531 70.2737C97.5828 70.0517 97.1821 69.9406 96.6511 69.9406H94.4643L95.3042 68.9124V73.5467Z" fill="#131313"/>
<path d="M104.28 76.4866V73.0253L104.7 74.4156L100.92 68.1593H103.339L106.119 72.7502H104.859L107.64 68.1593H109.943L106.148 74.4156L106.568 73.0253V76.4866H104.28Z" fill="#131313"/>
<path d="M110.219 73.315V71.5047H114.318V73.315H110.219Z" fill="#131313"/>
<path d="M59.9147 90.3654V82.0381H63.7091C64.4815 82.0381 65.1428 82.1636 65.6932 82.4147C66.2531 82.656 66.6876 83.0036 66.9966 83.4574C67.3055 83.9112 67.46 84.4615 67.46 85.1084C67.46 85.7359 67.3055 86.2814 66.9966 86.7449C66.6876 87.2083 66.2531 87.5607 65.6932 87.8021C65.1428 88.0434 64.4815 88.1641 63.7091 88.1641H61.1747L62.2029 87.1648V90.3654H59.9147ZM62.2029 87.4255L61.363 86.3973H63.5498C64.0808 86.3973 64.4815 86.2863 64.7518 86.0642C65.0222 85.8325 65.1573 85.5139 65.1573 85.1084C65.1573 84.6932 65.0222 84.3746 64.7518 84.1525C64.4815 83.9305 64.0808 83.8194 63.5498 83.8194H61.363L62.2029 82.7912V87.4255Z" fill="#131313"/>
<path d="M73.2054 90.5247C72.3075 90.5247 71.5061 90.3413 70.8013 89.9744C70.0965 89.5979 69.5414 89.0813 69.1359 88.4248C68.7304 87.7683 68.5276 87.0249 68.5276 86.1945C68.5276 85.3642 68.7304 84.6256 69.1359 83.9788C69.5414 83.3319 70.0965 82.8202 70.8013 82.4436C71.5061 82.0671 72.3075 81.8788 73.2054 81.8788C74.1033 81.8788 74.9046 82.0671 75.6094 82.4436C76.3142 82.8202 76.8694 83.3319 77.2749 83.9788C77.6804 84.6256 77.8831 85.3642 77.8831 86.1945C77.8831 87.0249 77.6804 87.7683 77.2749 88.4248C76.8694 89.0813 76.3142 89.5979 75.6094 89.9744C74.9046 90.3413 74.1033 90.5247 73.2054 90.5247ZM73.2054 88.6565C73.6688 88.6565 74.0743 88.5551 74.4219 88.3524C74.7791 88.14 75.0591 87.8455 75.2619 87.469C75.4646 87.0924 75.566 86.6725 75.566 86.209C75.566 85.7263 75.4646 85.3015 75.2619 84.9346C75.0591 84.5677 74.7791 84.2781 74.4219 84.0656C74.0743 83.8532 73.6688 83.747 73.2054 83.747C72.7516 83.747 72.3461 83.8532 71.9889 84.0656C71.6316 84.2781 71.3468 84.5677 71.1344 84.9346C70.9317 85.3015 70.8303 85.7215 70.8303 86.1945C70.8303 86.6676 70.9317 87.0924 71.1344 87.469C71.3468 87.8455 71.6316 88.14 71.9889 88.3524C72.3461 88.5551 72.7516 88.6565 73.2054 88.6565Z" fill="#131313"/>
<path d="M79.5026 90.3654V82.0381H83.2969C84.0693 82.0381 84.7307 82.1636 85.281 82.4147C85.841 82.656 86.2754 83.0036 86.5844 83.4574C86.8933 83.9112 87.0478 84.4615 87.0478 85.1084C87.0478 85.7359 86.8933 86.2814 86.5844 86.7449C86.2754 87.2083 85.841 87.5607 85.281 87.8021C84.7307 88.0434 84.0693 88.1641 83.2969 88.1641H80.7625L81.7908 87.1648V90.3654H79.5026ZM81.7908 87.4255L80.9508 86.3973H83.1376C83.6686 86.3973 84.0693 86.2863 84.3396 86.0642C84.61 85.8325 84.7451 85.5139 84.7451 85.1084C84.7451 84.6932 84.61 84.3746 84.3396 84.1525C84.0693 83.9305 83.6686 83.8194 83.1376 83.8194H80.9508L81.7908 82.7912V87.4255Z" fill="#131313"/>
<path d="M92.576 90.5247C91.7553 90.5247 91.0505 90.3751 90.4616 90.0758C89.8726 89.7765 89.4188 89.3468 89.1002 88.7869C88.7913 88.2172 88.6368 87.5462 88.6368 86.7738V82.0381H90.925V86.7014C90.925 87.3483 91.0698 87.8359 91.3595 88.1641C91.6491 88.4924 92.0643 88.6565 92.6049 88.6565C93.1456 88.6565 93.5559 88.4924 93.8359 88.1641C94.1159 87.8359 94.2559 87.3483 94.2559 86.7014V82.0381H96.5151V86.7738C96.5151 87.5462 96.3607 88.2172 96.0517 88.7869C95.7427 89.3468 95.2938 89.7765 94.7049 90.0758C94.1159 90.3751 93.4063 90.5247 92.576 90.5247Z" fill="#131313"/>
<path d="M98.6519 90.3654V82.0381H102.446C103.219 82.0381 103.88 82.1636 104.43 82.4147C104.99 82.656 105.425 83.0036 105.734 83.4574C106.043 83.9112 106.197 84.4615 106.197 85.1084C106.197 85.7359 106.043 86.2814 105.734 86.7449C105.425 87.2083 104.99 87.5607 104.43 87.8021C103.88 88.0434 103.219 88.1641 102.446 88.1641H99.9119L100.94 87.1648V90.3654H98.6519ZM100.94 87.4255L100.1 86.3973H102.287C102.818 86.3973 103.219 86.2863 103.489 86.0642C103.759 85.8325 103.895 85.5139 103.895 85.1084C103.895 84.6932 103.759 84.3746 103.489 84.1525C103.219 83.9305 102.818 83.8194 102.287 83.8194H100.1L100.94 82.7912V87.4255Z" fill="#131313"/>
<path d="M107.511 87.1938V85.3835H111.609V87.1938H107.511Z" fill="#131313"/>
<path d="M59.6778 104.404C58.7799 104.404 57.9785 104.22 57.2737 103.853C56.5689 103.477 56.0138 102.96 55.6083 102.304C55.2028 101.647 55 100.904 55 100.073C55 99.243 55.2028 98.5045 55.6083 97.8576C56.0138 97.2107 56.5689 96.699 57.2737 96.3225C57.9785 95.9459 58.7799 95.7577 59.6778 95.7577C60.5757 95.7577 61.377 95.9459 62.0818 96.3225C62.7866 96.699 63.3418 97.2107 63.7473 97.8576C64.1528 98.5045 64.3555 99.243 64.3555 100.073C64.3555 100.904 64.1528 101.647 63.7473 102.304C63.3418 102.96 62.7866 103.477 62.0818 103.853C61.377 104.22 60.5757 104.404 59.6778 104.404ZM59.6778 102.535C60.1412 102.535 60.5467 102.434 60.8943 102.231C61.2515 102.019 61.5315 101.724 61.7342 101.348C61.937 100.971 62.0384 100.551 62.0384 100.088C62.0384 99.6051 61.937 99.1803 61.7342 98.8134C61.5315 98.4465 61.2515 98.1569 60.8943 97.9445C60.5467 97.7321 60.1412 97.6259 59.6778 97.6259C59.224 97.6259 58.8185 97.7321 58.4613 97.9445C58.104 98.1569 57.8192 98.4465 57.6068 98.8134C57.4041 99.1803 57.3027 99.6003 57.3027 100.073C57.3027 100.546 57.4041 100.971 57.6068 101.348C57.8192 101.724 58.104 102.019 58.4613 102.231C58.8185 102.434 59.224 102.535 59.6778 102.535Z" fill="#131313"/>
<path d="M68.0972 104.244L64.4766 95.917H66.9096L69.9799 103.23H68.5751L71.7032 95.917H73.977L70.3564 104.244H68.0972Z" fill="#131313"/>
<path d="M77.068 99.1899H81.0941V100.855H77.068V99.1899ZM77.2997 102.492H81.7458V104.244H75.0405V95.917H81.5865V97.6693H77.2997V102.492Z" fill="#131313"/>
<path d="M83.413 104.244V95.917H87.2074C87.9798 95.917 88.6411 96.0425 89.1915 96.2935C89.7514 96.5349 90.1859 96.8824 90.4949 97.3362C90.8038 97.79 90.9583 98.3403 90.9583 98.9872C90.9583 99.6148 90.8038 100.155 90.4949 100.609C90.1859 101.063 89.7514 101.411 89.1915 101.652C88.6411 101.893 87.9798 102.014 87.2074 102.014H84.673L85.7012 101.044V104.244H83.413ZM88.6556 104.244L86.5557 101.217H88.9887L91.1176 104.244H88.6556ZM85.7012 101.304L84.8613 100.276H87.0481C87.5791 100.276 87.9798 100.165 88.2501 99.943C88.5205 99.7113 88.6556 99.3927 88.6556 98.9872C88.6556 98.572 88.5205 98.2534 88.2501 98.0314C87.9798 97.8093 87.5791 97.6983 87.0481 97.6983H84.8613L85.7012 96.67V101.304Z" fill="#131313"/>
<path d="M92.7332 104.244V95.917H95.0214V102.463H99.0909V104.244H92.7332Z" fill="#131313"/>
<path d="M99.139 104.244L102.875 95.917H105.135L108.886 104.244H106.626L103.628 97.0176H104.396L101.355 104.244H99.139ZM101.181 102.593L101.775 100.942H105.888L106.481 102.593H101.181Z" fill="#131313"/>
<path d="M111.337 104.244V100.783L111.757 102.173L107.978 95.917H110.396L113.177 100.508H111.917L114.697 95.917H117L113.206 102.173L113.626 100.783V104.244H111.337Z" fill="#131313"/>
</svg>
