<svg width="172" height="172" viewBox="0 0 172 172" fill="none" xmlns="http://www.w3.org/2000/svg">
<path d="M157.858 71.8579C165.668 79.6683 165.668 92.3316 157.858 100.142L100.142 157.858C92.3317 165.668 79.6684 165.668 71.8579 157.858L14.1421 100.142C6.33166 92.3317 6.33165 79.6684 14.1421 71.8579L71.8579 14.1421C79.6683 6.33166 92.3316 6.33165 100.142 14.1421L157.858 71.8579Z" fill="#F58529"/>
<g clip-path="url(#clip0_12_23)">
<path fill-rule="evenodd" clip-rule="evenodd" d="M137.082 75.7888L141.81 75.8132C141.81 75.8132 133.02 86.9782 132.303 87.8881C132.07 88.1828 131.716 88.5005 131.536 88.8945C131.082 89.8847 130.616 92.0569 130.616 92.0569L126.29 92.0772C126.29 92.0772 126.963 89.8129 126.936 88.6069C126.911 87.5534 126.338 86.5011 126.016 85.4445C125.69 84.3748 125.249 82.2819 125.249 82.2819H129.696L130.309 84.5819L137.082 75.7888" fill="white"/>
<path fill-rule="evenodd" clip-rule="evenodd" d="M128.13 78.1435C129.003 78.6366 129.538 81.3564 129.538 81.3564C129.538 81.3564 124.973 81.4195 122.489 81.4195H120.342L117.735 92.0569H113.748C113.748 92.0569 116.23 80.4968 116.815 78.4009C117.005 77.7223 118.116 77.8388 119.991 77.8388H122.986C124.92 77.8388 127.18 77.6073 128.13 78.1435M109.57 83.3242C109.57 83.3242 109.694 82.6415 109.148 81.8507C108.682 81.1766 108.251 81.0198 107.025 80.9838C103.561 80.8818 103.628 83.2882 103.628 83.2882L109.57 83.3242ZM113.327 80.5684C113.834 82.285 112.867 86.3184 112.867 86.3184C112.867 86.3184 107.814 86.2394 105.046 86.3184C104.186 86.343 103.156 86.2307 102.9 86.606C102.539 87.1319 103.031 87.9415 103.448 88.2835C103.928 88.6773 104.864 88.7221 105.2 88.7621C107.446 89.0296 112.147 88.8312 112.147 88.8312L111.333 92.2119C111.333 92.2119 104.689 92.5243 101.366 91.7807C100.71 91.6342 100.095 91.3382 99.6793 90.9184C99.5659 90.8035 99.4674 90.6469 99.3602 90.5116C99.2745 90.4036 99.0247 90.0488 98.9126 89.7682C98.1536 87.8722 99.0015 84.2399 99.8327 82.2935C99.9291 82.0679 100.05 81.7818 100.178 81.5387C100.337 81.2356 100.472 80.8934 100.599 80.7121C100.685 80.5872 100.791 80.5067 100.88 80.3888C100.983 80.2493 101.102 80.1142 101.213 79.9936C101.52 79.6601 101.868 79.4242 102.286 79.1313C103.671 78.1593 106.176 77.4047 109.187 77.6935C110.32 77.8028 112.031 78.1822 112.867 79.2748C113.091 79.5666 113.201 80.1459 113.327 80.5686V80.5684ZM95.0408 77.8255L98.9066 77.8042C98.9066 77.8042 96.7521 87.385 95.6541 92.0569H91.2069C88.099 92.0569 85.3312 92.4177 84.1535 90.3318C83.0111 88.3065 84.1014 84.9759 84.6134 82.713C84.9754 81.1117 85.7377 77.8386 85.7377 77.8386L89.743 77.8042C89.743 77.8042 88.6113 82.9001 88.1403 85.4445C87.9717 86.3559 87.6238 87.2141 87.9871 87.8879C88.3321 88.5293 88.8152 88.5753 90.2871 88.6069C90.7534 88.6173 92.2807 88.6069 92.2807 88.6069L95.0408 77.8255M76.9464 84.7255C77.3512 83.3774 77.9416 81.9155 77.8665 80.7006C77.7853 79.4013 76.6231 78.2182 75.8732 77.9695C73.6145 77.222 71.4999 78.267 70.6595 79.1195C69.5723 80.2235 69.2042 81.513 68.8193 83.2884C68.5328 84.6064 68.298 85.9977 68.8193 87.0256C69.7422 88.8428 72.6207 88.4459 75.7198 88.4633C76.1797 87.3076 76.56 86.0095 76.9464 84.7255V84.7255ZM82.3135 79.407C82.7549 82.417 81.0608 85.7393 79.8937 88.6284C81.0837 88.7292 82.1266 88.6129 82.2016 88.6961C82.2797 88.8039 81.404 92.1446 81.0987 92.1533C80.1544 92.1763 77.0248 92.2007 75.7198 92.2007C71.4613 92.2007 67.4776 92.4608 65.446 90.4758C64.621 89.6693 64.0505 88.2862 63.9124 87.3132C63.6824 85.6888 63.9706 83.9004 64.3725 82.4259C64.736 81.0945 65.2019 79.8382 65.906 78.6881C67.6954 75.7601 70.8082 73.5866 76.0263 74.0884C77.0385 74.186 78.492 74.6015 79.4 75.0945C79.4627 75.129 79.6823 75.2929 79.7326 75.3217C80.9595 76.0535 82.0773 77.7999 82.3135 79.407V79.407ZM63.4723 77.8429C63.2147 78.9426 62.9572 80.1891 62.6857 81.2757H58.3921C58.7247 80.0712 58.9794 78.8737 59.3122 77.8257C60.6861 77.8257 61.9636 77.8429 63.4725 77.8429M58.2387 82.2821H62.3791C61.8378 85.0909 60.7658 89.6217 59.9256 92.7757C59.3996 94.7495 59.0485 96.1897 57.6254 97.2318C57.4981 97.3253 57.4246 97.2808 57.3186 97.3756C57.0564 97.61 55.8435 97.8819 55.1721 97.9506C54.0803 98.0615 52.8459 97.965 51.504 97.9392C51.8551 96.7361 52.2524 95.2913 52.5654 94.213C55.8362 94.5841 55.9189 91.6859 56.5521 88.8945C56.9185 87.2815 58.0289 82.9288 58.2387 82.2821" fill="white"/>
<path fill-rule="evenodd" clip-rule="evenodd" d="M48.5781 89.6134L48.4894 89.8288C46.9776 92.5888 44.2985 94.2823 40.4772 94.3569C38.6909 94.3913 36.9888 93.9618 35.8769 93.4944C33.4774 92.4841 31.4591 90.6096 30.3569 88.6071C28.7758 85.7364 28.4906 81.7429 31.7782 78.7603C31.829 78.7603 31.3794 79.407 31.4302 79.407L31.3397 79.683C28.9706 86.6362 36.2695 92.5946 43.3647 91.9131C45.0698 91.7494 47.2442 90.874 48.5781 89.6134Z" fill="#21609B"/>
<path fill-rule="evenodd" clip-rule="evenodd" d="M44.2846 86.7383C46.0696 86.7499 47.9341 85.9678 49.0383 84.8696C48.0723 87.1682 45.2753 88.6459 41.5247 88.1758C38.3841 87.7819 35.3924 84.8193 35.0843 81.851C34.859 79.6903 35.6621 78.401 36.9857 76.837C36.5258 77.6549 36.3538 78.2859 36.311 78.6883C35.8083 83.3617 40.2934 86.7139 44.2846 86.7383" fill="#21609B"/>
<path fill-rule="evenodd" clip-rule="evenodd" d="M48.8589 80.9337C48.5814 81.5304 46.9838 82.6572 46.2782 82.7979C43.4843 83.3559 41.6951 82.1139 40.7577 80.7008C40.6185 80.4895 40.3609 79.9131 40.3148 79.7664C39.9513 78.6078 40.1184 76.8554 41.2027 75.9484C40.876 76.8111 40.8284 77.8127 41.0003 78.464C41.1045 78.858 41.4218 79.5453 41.7394 79.9777C42.3172 80.7655 42.6836 80.9569 43.426 81.3751C43.7604 81.5633 44.119 81.7144 44.274 81.756C44.9778 81.95 46.4638 82.4619 48.8591 80.9337" fill="#21609B"/>
</g>
<defs>
<clipPath id="clip0_12_23">
<rect width="113" height="24" fill="white" transform="translate(29 74)"/>
</clipPath>
</defs>
</svg>
