<svg width="172" height="172" viewBox="0 0 172 172" fill="none" xmlns="http://www.w3.org/2000/svg">
<path d="M157.858 71.8579C165.668 79.6683 165.668 92.3316 157.858 100.142L100.142 157.858C92.3317 165.668 79.6684 165.668 71.8579 157.858L14.1421 100.142C6.33165 92.3317 6.33165 79.6684 14.1421 71.8579L71.8579 14.1421C79.6683 6.33165 92.3316 6.33165 100.142 14.1421L157.858 71.8579Z" fill="white" fill-opacity="0.5"/>
<path d="M89.0059 69.2468C87.4454 65.3601 87.6641 60.9877 89.9178 57.4698L91.6024 55C88.4865 60.9775 91.4533 68.3184 96.2241 72.1668C97.5007 73.1897 98.9238 74.0047 100.443 74.5833C100.851 74.7359 101.313 74.8987 101.735 75.0081C107.068 76.3816 111.413 75.4328 114 71.475C113.92 71.5971 113.819 71.7904 113.689 72.0346C112.536 74.2221 109.162 80.6244 99.3772 78.6149C99.1909 78.5768 99.012 78.5132 98.8331 78.4547L98.674 78.3987L98.5597 78.3605C98.507 78.3419 98.454 78.3241 98.4007 78.3071C98.2558 78.2561 98.1116 78.2026 97.9684 78.1469C94.03 76.6105 90.6532 73.3751 89.0059 69.2468V69.2468Z" fill="#141414"/>
<path d="M75.9131 62.6273C72.0331 68.3989 72.2452 76.127 75.2719 82.233C75.8315 83.3692 76.4745 84.4628 77.1955 85.5048C77.7231 86.292 78.3037 87.1646 78.9827 87.7732C79.2629 88.0926 79.5558 88.4019 79.8536 88.7062L80.0253 88.8823L80.0833 88.9401C80.3847 89.2437 80.6936 89.5397 81.0098 89.8279L81.0123 89.8304L81.0174 89.8354C81.3989 90.1794 81.7904 90.5123 82.1912 90.8338L82.2922 90.9143C82.6456 91.1959 83.0066 91.4726 83.3776 91.7366L83.3928 91.7467L83.4105 91.7593C83.5291 91.8448 83.6503 91.9278 83.7714 92.0082L83.9052 92.0988C83.9845 92.151 84.0627 92.2047 84.14 92.2597C84.4051 92.4358 84.6726 92.6043 84.9453 92.7702L85.021 92.813L85.0589 92.8381C85.3512 93.0118 85.6466 93.1803 85.9449 93.3436L86.0232 93.3839L86.1241 93.4392C86.2554 93.5096 86.3867 93.5825 86.523 93.6504L86.5987 93.6882C86.9892 93.8862 87.3848 94.0741 87.7852 94.2515L87.866 94.2842C88.2417 94.449 88.6213 94.605 89.0044 94.7519L89.0802 94.7796C89.3402 94.8802 89.6002 94.9707 89.8627 95.0613L89.994 95.1065L90.2161 95.1795C90.3146 95.2096 90.413 95.2448 90.509 95.2775C90.7841 95.3731 91.0593 95.4661 91.3471 95.5164C111.375 98.9467 116 83.0026 116 83.0026C111.832 89.2092 103.759 92.1717 95.1462 89.858C94.7648 89.7542 94.3861 89.641 94.0103 89.5185C93.9085 89.4873 93.8075 89.4537 93.7073 89.4179L93.6695 89.4054C93.4035 89.3165 93.1392 89.2226 92.8768 89.1237L92.8692 89.1187C92.4337 88.9545 92.0027 88.7784 91.5768 88.5906L91.4354 88.5277C90.9391 88.3041 90.4507 88.0634 89.9713 87.8059L89.8653 87.7506L89.5623 87.5897C89.2858 87.4357 89.0122 87.2764 88.7419 87.1118C88.208 86.787 87.6859 86.4431 87.1768 86.0807C86.8091 85.8163 86.4481 85.543 86.0939 85.2609L86.0055 85.188C85.9539 85.1464 85.9026 85.1045 85.8515 85.0622C82.0801 81.9841 79.0913 77.7767 77.6726 73.0086C76.1832 68.0594 76.5038 62.5066 79.0837 58L75.9131 62.6273Z" fill="#141414"/>
<path d="M58.9033 69.5273C53.462 77.5499 54.1383 87.9895 58.2962 96.5132C58.373 96.6777 58.4576 96.8397 58.5396 96.9991L58.601 97.1206L58.6779 97.2699C58.7423 97.4026 58.8107 97.5334 58.8828 97.6622L58.9161 97.7254L59.0955 98.0544L59.1339 98.1228C59.262 98.3556 59.3952 98.5884 59.531 98.8213L59.5745 98.8972C59.7798 99.251 59.9942 99.5995 60.2176 99.9424L60.2637 100.018L60.4148 100.254C60.63 100.583 60.8503 100.914 61.0809 101.241V101.243C61.0864 101.251 61.0923 101.259 61.0988 101.266L61.1603 101.35L61.2116 101.42C61.4114 101.699 61.6138 101.977 61.8213 102.251L62.0518 102.549C62.554 103.192 63.0734 103.822 63.6094 104.437L63.6248 104.455L63.6376 104.467L63.6556 104.488C64.1991 105.093 64.7612 105.681 65.3412 106.252L65.4181 106.328L65.6 106.505C65.8903 106.785 66.1858 107.06 66.4864 107.33L66.5709 107.406L66.6375 107.461C66.9582 107.744 67.2827 108.023 67.611 108.297L67.7545 108.416C67.9723 108.593 68.1926 108.77 68.4155 108.942L68.7664 109.218C69.0124 109.403 69.2583 109.585 69.5068 109.762L69.5478 109.792L69.7784 109.959L69.8501 110.01C70.0755 110.172 70.3035 110.324 70.5341 110.476L70.57 110.501C70.6733 110.57 70.7758 110.64 70.8774 110.711C71.3051 110.988 71.7381 111.257 72.1762 111.518L72.3146 111.599C72.7025 111.826 73.0945 112.045 73.4905 112.257L73.6262 112.331L73.7774 112.412C73.9285 112.493 74.0771 112.574 74.2308 112.652L74.2949 112.682L74.3717 112.72L74.4588 112.763C74.5101 112.789 74.5639 112.814 74.6177 112.844C74.9353 112.999 75.253 113.151 75.5758 113.3L75.6962 113.353L75.7782 113.391C76.5787 113.751 77.3932 114.081 78.2196 114.378L78.2452 114.386L78.3528 114.426C78.9369 114.634 79.5263 114.826 80.1205 115.003C80.4177 115.102 80.7174 115.198 81.0248 115.256C107.353 120.181 115 99.0339 115 99.0339C108.577 107.613 97.1773 109.878 86.374 107.358C85.9675 107.26 85.5657 107.145 85.1699 107.011L84.8676 106.917C84.4782 106.796 84.0914 106.664 83.7071 106.53L83.5483 106.472C83.2024 106.345 82.8643 106.219 82.5235 106.082L82.2366 105.966C81.8656 105.816 81.4975 105.659 81.1324 105.495L81.0146 105.444C80.6675 105.285 80.3224 105.121 79.9796 104.953L79.8746 104.898C79.8198 104.872 79.7651 104.846 79.7106 104.819L79.1624 104.533L78.9882 104.442C78.9312 104.411 78.8739 104.381 78.8165 104.351L78.5091 104.184C78.2171 104.025 77.9301 103.855 77.6432 103.685L77.5331 103.622L77.3537 103.521C76.9078 103.249 76.467 102.969 76.0318 102.681L75.9217 102.605C74.8283 101.885 73.7803 101.1 72.7834 100.254C72.4788 99.9993 72.1782 99.7403 71.8816 99.4768L71.8406 99.4388C71.4512 99.0849 71.0686 98.7238 70.6929 98.3556C70.476 98.1439 70.2625 97.9287 70.0525 97.7103L69.9654 97.6242C69.6336 97.2817 69.309 96.9323 68.9919 96.5765L68.9765 96.5613L68.9714 96.5537C68.6998 96.25 68.4334 95.9362 68.1721 95.6223L67.962 95.3667C67.6938 95.0382 67.4316 94.7049 67.1755 94.3671C66.9501 94.0634 66.7272 93.7647 66.5094 93.4585C60.5147 85.0714 58.3602 73.5006 63.1534 64L58.9033 69.5273Z" fill="#141414"/>
</svg>
