<svg width="172" height="172" viewBox="0 0 172 172" fill="none" xmlns="http://www.w3.org/2000/svg">
<path d="M157.858 71.8579C165.668 79.6683 165.668 92.3316 157.858 100.142L100.142 157.858C92.3317 165.668 79.6684 165.668 71.8579 157.858L14.1421 100.142C6.33165 92.3317 6.33165 79.6684 14.1421 71.8579L71.8579 14.1421C79.6683 6.33165 92.3316 6.33165 100.142 14.1421L157.858 71.8579Z" fill="white" fill-opacity="0.5"/>
<path d="M80.4458 76.9767C79.49 76.5892 78.4567 76.4342 77.3975 76.46C76.7258 76.46 76.1317 76.46 75.6408 76.4858C75.1242 76.46 74.7625 76.4858 74.5817 76.5117V85.1917C74.9433 85.2175 75.2792 85.2433 75.5892 85.2433H76.9583C77.9658 85.2433 78.9733 85.0883 79.9292 84.7783C80.7558 84.5458 81.4792 84.055 82.0475 83.4092C82.59 82.7633 82.8483 81.885 82.8483 80.7483C82.8742 79.9475 82.6675 79.1467 82.2542 78.4492C81.8234 77.7784 81.1899 77.2626 80.4458 76.9767ZM106.021 56H65.9792C59.9083 56 55 60.9083 55 66.9792V105.468C55 111.539 59.9083 116.447 65.9792 116.447H106.021C112.092 116.447 117 111.539 117 105.468V66.9792C117 60.9083 112.092 56 106.021 56ZM86.9274 86.0958C85.8967 87.5425 84.45 88.6275 82.7708 89.2475C81.0142 89.8933 79.0767 90.1258 76.9583 90.1258C76.3383 90.1258 75.925 90.1258 75.6667 90.1C75.4083 90.0742 75.0467 90.0742 74.5558 90.0742V98.3641C74.5817 98.5449 74.4525 98.7025 74.2717 98.7283H69.26C69.0533 98.7283 68.95 98.6224 68.95 98.3899V71.81C68.95 71.6292 69.0275 71.5258 69.2083 71.5258C69.6475 71.5258 70.0608 71.5258 70.655 71.5C71.275 71.4742 71.9208 71.4742 72.6183 71.4483C73.3158 71.4225 74.065 71.4225 74.8658 71.3967C75.6667 71.3708 76.4417 71.3708 77.2167 71.3708C79.335 71.3708 81.0917 71.6292 82.5383 72.1717C83.83 72.6108 85.0183 73.3342 86 74.29C86.8267 75.1167 87.4725 76.1242 87.8858 77.235C88.2707 78.32 88.4774 79.4308 88.4774 80.5933C88.48 82.815 87.9633 84.6492 86.9274 86.0958V86.0958ZM105.246 96.145C104.523 97.1783 103.512 97.9766 102.352 98.4468C101.087 98.9867 99.5367 99.2683 97.6741 99.2683C96.4883 99.2683 95.3232 99.1675 94.1633 98.935C93.2592 98.7774 92.355 98.4958 91.5283 98.1083C91.3475 98.0076 91.2157 97.8268 91.2416 97.6201V93.1251C91.2416 93.0502 91.27 92.9443 91.3475 92.8926C91.4224 92.8409 91.5025 92.8668 91.58 92.9184C92.5875 93.5126 93.6467 93.9285 94.7833 94.1843C95.7624 94.4426 96.7957 94.5718 97.8317 94.5718C98.8133 94.5718 99.5108 94.44 99.9758 94.2075C100.389 94.0267 100.673 93.5875 100.673 93.1225C100.673 92.7583 100.467 92.425 100.053 92.0892C99.64 91.7559 98.7901 91.3684 97.5242 90.8724C96.2067 90.4074 94.9952 89.7874 93.8559 89.015C93.0476 88.436 92.3764 87.6864 91.89 86.8192C91.4794 86.0018 91.2762 85.096 91.2984 84.1816C91.2984 83.0708 91.6084 82.0116 92.1793 81.0558C92.8252 80.0224 93.7784 79.1958 94.8892 78.6791C96.1008 78.0617 97.625 77.7775 99.4592 77.7775C100.518 77.7775 101.603 77.855 102.663 78.01C103.438 78.1133 104.187 78.32 104.884 78.6042C104.985 78.63 105.091 78.7333 105.142 78.8367C105.168 78.94 105.194 79.0433 105.194 79.1467V83.3575C105.194 83.4608 105.142 83.5642 105.065 83.6158C104.832 83.6675 104.703 83.6675 104.6 83.6158C103.825 83.2025 102.998 82.9183 102.12 82.7375C101.164 82.5308 100.208 82.4017 99.2267 82.4017C98.71 82.3758 98.1675 82.4533 97.6741 82.5825C97.3408 82.66 97.0541 82.8408 96.8732 83.0992C96.7441 83.3058 96.6666 83.5642 96.6666 83.7967C96.6666 84.0292 96.7699 84.2617 96.9275 84.4683C97.16 84.7525 97.4674 84.985 97.8058 85.1658C98.3974 85.4758 99.02 85.76 99.6374 86.0183C101.035 86.4833 102.378 87.1292 103.618 87.9042C104.471 88.4441 105.168 89.17 105.657 90.0483C106.07 90.8698 106.277 91.7792 106.251 92.7066C106.279 93.9233 105.918 95.1349 105.246 96.145V96.145Z" fill="#131313"/>
</svg>
