<svg width="172" height="172" viewBox="0 0 172 172" fill="none" xmlns="http://www.w3.org/2000/svg">
<g clip-path="url(#clip0_12_50)">
<path d="M157.858 71.8579C165.668 79.6683 165.668 92.3316 157.858 100.142L100.142 157.858C92.3317 165.668 79.6684 165.668 71.8579 157.858L14.1421 100.142C6.33166 92.3317 6.33165 79.6684 14.1421 71.8579L71.8579 14.1421C79.6683 6.33166 92.3316 6.33165 100.142 14.1421L157.858 71.8579Z" fill="#F58529"/>
<path d="M80.4458 76.9767C79.49 76.5892 78.4567 76.4342 77.3975 76.46C76.7258 76.46 76.1317 76.46 75.6408 76.4858C75.1242 76.46 74.7625 76.4858 74.5817 76.5117V85.1917C74.9433 85.2175 75.2792 85.2433 75.5892 85.2433H76.9583C77.9658 85.2433 78.9733 85.0883 79.9292 84.7783C80.7558 84.5458 81.4792 84.055 82.0475 83.4092C82.59 82.7633 82.8483 81.885 82.8483 80.7483C82.8742 79.9475 82.6675 79.1467 82.2542 78.4492C81.8234 77.7784 81.1899 77.2626 80.4458 76.9767ZM106.021 56H65.9792C59.9083 56 55 60.9083 55 66.9792V105.468C55 111.539 59.9083 116.447 65.9792 116.447H106.021C112.092 116.447 117 111.539 117 105.468V66.9792C117 60.9083 112.092 56 106.021 56ZM86.9274 86.0958C85.8967 87.5425 84.45 88.6275 82.7708 89.2475C81.0142 89.8933 79.0767 90.1258 76.9583 90.1258C76.3383 90.1258 75.925 90.1258 75.6667 90.1C75.4083 90.0742 75.0467 90.0742 74.5558 90.0742V98.3641C74.5817 98.5449 74.4525 98.7025 74.2717 98.7283H69.26C69.0533 98.7283 68.95 98.6224 68.95 98.3899V71.81C68.95 71.6292 69.0275 71.5258 69.2083 71.5258C69.6475 71.5258 70.0608 71.5258 70.655 71.5C71.275 71.4742 71.9208 71.4742 72.6183 71.4483C73.3158 71.4225 74.065 71.4225 74.8658 71.3967C75.6667 71.3708 76.4417 71.3708 77.2167 71.3708C79.335 71.3708 81.0917 71.6292 82.5383 72.1717C83.83 72.6108 85.0183 73.3342 86 74.29C86.8267 75.1167 87.4725 76.1242 87.8858 77.235C88.2707 78.32 88.4774 79.4308 88.4774 80.5933C88.48 82.815 87.9633 84.6492 86.9274 86.0958ZM105.246 96.145C104.522 97.1783 103.512 97.9766 102.352 98.4468C101.087 98.9867 99.5367 99.2683 97.6741 99.2683C96.4883 99.2683 95.3232 99.1675 94.1633 98.935C93.2592 98.7774 92.355 98.4958 91.5283 98.1083C91.3475 98.0076 91.2157 97.8268 91.2416 97.6201V93.1251C91.2416 93.0502 91.27 92.9443 91.3475 92.8926C91.4224 92.8409 91.5025 92.8668 91.58 92.9184C92.5875 93.5126 93.6467 93.9285 94.7833 94.1843C95.7624 94.4426 96.7957 94.5718 97.8317 94.5718C98.8133 94.5718 99.5108 94.44 99.9758 94.2075C100.389 94.0267 100.673 93.5875 100.673 93.1225C100.673 92.7583 100.467 92.425 100.053 92.0892C99.64 91.7559 98.7901 91.3684 97.5243 90.8724C96.2067 90.4074 94.9952 89.7874 93.8559 89.015C93.0476 88.436 92.3764 87.6864 91.89 86.8192C91.4794 86.0018 91.2762 85.096 91.2984 84.1816C91.2984 83.0708 91.6084 82.0116 92.1793 81.0558C92.8252 80.0224 93.7784 79.1958 94.8892 78.6791C96.1008 78.0617 97.625 77.7775 99.4592 77.7775C100.518 77.7775 101.603 77.855 102.663 78.01C103.438 78.1133 104.187 78.32 104.884 78.6042C104.985 78.63 105.091 78.7333 105.142 78.8367C105.168 78.94 105.194 79.0433 105.194 79.1467V83.3575C105.194 83.4608 105.142 83.5642 105.065 83.6158C104.832 83.6675 104.703 83.6675 104.6 83.6158C103.825 83.2025 102.998 82.9183 102.12 82.7375C101.164 82.5308 100.208 82.4017 99.2267 82.4017C98.71 82.3758 98.1675 82.4533 97.6741 82.5825C97.3408 82.66 97.0541 82.8408 96.8732 83.0992C96.7441 83.3058 96.6666 83.5642 96.6666 83.7967C96.6666 84.0292 96.7699 84.2617 96.9275 84.4683C97.16 84.7525 97.4674 84.985 97.8058 85.1658C98.3974 85.4758 99.02 85.76 99.6374 86.0183C101.035 86.4833 102.378 87.1292 103.618 87.9042C104.471 88.4441 105.168 89.17 105.657 90.0483C106.07 90.8698 106.277 91.7792 106.251 92.7066C106.279 93.9233 105.917 95.1349 105.246 96.145Z" fill="#131313"/>
<g clip-path="url(#clip1_12_50)">
<path d="M106.948 56H64.54C58.7189 56 54 60.7189 54 66.54V107.361C54 113.182 58.7189 117.901 64.54 117.901H106.948C112.769 117.901 117.488 113.182 117.488 107.361V66.54C117.488 60.7189 112.769 56 106.948 56Z" fill="#001E36"/>
<path d="M68.2957 99.4087V72.1936C68.2957 71.9952 68.381 71.8955 68.5514 71.8955L68.821 71.8948L69.2818 71.8898L69.9221 71.8772L72.0673 71.8318L74.3675 71.7891C75.1765 71.7753 75.9785 71.7678 76.7736 71.7678C78.9312 71.7678 80.7483 72.0376 82.2251 72.577C83.5573 73.0277 84.7722 73.7697 85.7815 74.749C86.637 75.598 87.2982 76.6225 87.7193 77.7518C88.1177 78.8508 88.3196 80.0112 88.3158 81.1802C88.3158 83.4521 87.7903 85.326 86.7397 86.8021C85.7122 88.2421 84.279 89.3435 82.6229 89.9656L82.4808 90.0176C80.7515 90.6627 78.8365 90.8958 76.7361 90.9104L76.4098 90.9114L75.9254 90.909L75.6812 90.9055L75.4089 90.899L75.2447 90.8926L75.145 90.8874L74.8997 90.8785L74.5999 90.8723L74.1485 90.869L74.0481 90.8688V99.366C74.0555 99.4181 74.0508 99.4712 74.0341 99.5211C74.0175 99.571 73.9895 99.6164 73.9523 99.6536C73.9151 99.6908 73.8697 99.7189 73.8198 99.7355C73.7699 99.7521 73.7168 99.7569 73.6647 99.7494H68.5941C68.3949 99.7494 68.2957 99.6363 68.2957 99.4087V99.4087ZM74.0483 77.0063V85.8827C74.3882 85.9102 74.7291 85.9244 75.0701 85.9254H76.4757C77.4449 85.9221 78.4084 85.7779 79.3359 85.4971L79.5209 85.4393C80.3648 85.1887 81.1188 84.7007 81.6932 84.0337C82.2269 83.4042 82.5034 82.537 82.5225 81.4316L82.5237 81.3079C82.546 80.484 82.3318 79.6711 81.906 78.9655C81.4584 78.2832 80.8116 77.7552 80.0534 77.4535C79.0634 77.0687 78.0059 76.8877 76.9442 76.9213L76.4041 76.9227L76.0633 76.9257L75.7382 76.9299L75.2794 76.9389L74.9446 76.9483L74.7707 76.9547L74.5384 76.9657L74.3405 76.9778L74.2276 76.9867L74.1302 76.9962L74.0873 77.0011L74.0483 77.0063V77.0063ZM104.783 84.2688C104.04 83.887 103.252 83.6002 102.437 83.4151L102.249 83.3745C101.353 83.1688 100.438 83.0556 99.5187 83.0364L99.289 83.0337C98.7501 83.0191 98.212 83.0837 97.6919 83.2254C97.3608 83.299 97.0664 83.4876 96.8611 83.7576C96.7223 83.9737 96.6485 84.225 96.6483 84.4818C96.6561 84.7308 96.7459 84.9703 96.9038 85.163C97.1298 85.4274 97.4015 85.6489 97.706 85.817L97.7983 85.8659C98.4055 86.1928 99.0312 86.4843 99.6722 86.7388C101.102 87.2173 102.467 87.8681 103.739 88.6767C104.606 89.2237 105.323 89.9775 105.827 90.8703C106.25 91.7155 106.462 92.6507 106.444 93.5958C106.47 94.8439 106.113 96.07 105.422 97.1097C104.682 98.1649 103.655 98.9853 102.462 99.4731C101.213 100.022 99.6784 100.306 97.8595 100.324L97.6706 100.325C96.543 100.337 95.4171 100.238 94.3087 100.031L94.0716 99.9845C93.1384 99.8134 92.23 99.5272 91.3672 99.1326C91.2804 99.0879 91.2072 99.0209 91.1548 98.9385C91.1024 98.8562 91.0728 98.7614 91.0691 98.6639V94.0219C91.064 93.9768 91.0712 93.9312 91.09 93.8899C91.1087 93.8486 91.1384 93.8132 91.1757 93.7875C91.2123 93.7668 91.2543 93.7578 91.2961 93.7616C91.3379 93.7654 91.3776 93.7819 91.4098 93.8088C92.4287 94.4097 93.5351 94.8479 94.6891 95.1078C95.7063 95.3629 96.7497 95.4987 97.7983 95.5126C98.7918 95.5126 99.5229 95.3846 99.9916 95.1292C100.203 95.0323 100.382 94.8761 100.507 94.6796C100.632 94.4831 100.697 94.2546 100.694 94.0219C100.694 93.6533 100.481 93.2982 100.056 92.9572C99.877 92.8143 99.6208 92.6588 99.2875 92.491L99.1281 92.4126L98.9579 92.3325L98.8687 92.2918L98.6817 92.209C98.6492 92.1948 98.6167 92.1808 98.5842 92.1668L98.3808 92.0815L98.2749 92.0381L98.0552 91.9501L97.9411 91.9054L97.7048 91.8144L97.4575 91.7219C96.1202 91.2565 94.8522 90.6117 93.6882 89.8054C92.8557 89.2264 92.1702 88.4606 91.6866 87.5694C91.2677 86.7302 91.056 85.8028 91.0691 84.865C91.0667 83.7381 91.3762 82.6325 91.9633 81.6707C92.6329 80.6118 93.5942 79.7686 94.7318 79.2433C95.9809 78.6191 97.5424 78.3066 99.4165 78.3061C100.514 78.2973 101.611 78.3756 102.696 78.5405C103.482 78.6401 104.25 78.8479 104.979 79.158C105.096 79.1917 105.191 79.2783 105.235 79.3923C105.264 79.4962 105.278 79.6036 105.277 79.7118V84.0133C105.283 84.115 105.235 84.2125 105.15 84.2688C105.093 84.2971 105.03 84.3118 104.966 84.3118C104.903 84.3118 104.84 84.2971 104.783 84.2688V84.2688Z" fill="#31A8FF"/>
</g>
</g>
<defs>
<clipPath id="clip0_12_50">
<rect width="172" height="172" fill="white"/>
</clipPath>
<clipPath id="clip1_12_50">
<rect width="63.488" height="62" fill="white" transform="translate(54 56)"/>
</clipPath>
</defs>
</svg>
