<svg width="172" height="172" viewBox="0 0 172 172" fill="none" xmlns="http://www.w3.org/2000/svg">
<path d="M157.858 71.8579C165.668 79.6683 165.668 92.3316 157.858 100.142L100.142 157.858C92.3317 165.668 79.6684 165.668 71.8579 157.858L14.1421 100.142C6.33165 92.3317 6.33165 79.6684 14.1421 71.8579L71.8579 14.1421C79.6683 6.33165 92.3316 6.33165 100.142 14.1421L157.858 71.8579Z" fill="white" fill-opacity="0.5"/>
<rect x="55" y="59" width="60" height="43" rx="12" stroke="#141414" stroke-width="4"/>
<path d="M83.5858 109.757L76.8284 103H93.1716L86.4142 109.757C85.6332 110.538 84.3668 110.538 83.5858 109.757Z" fill="#141414" stroke="#141414" stroke-width="4"/>
<path d="M77 89C78.5063 90.5 82.5949 92 85.6076 92C88.919 92 92.5654 90.0714 94 89" stroke="#141414" stroke-width="4" stroke-linecap="round"/>
<circle cx="74" cy="80" r="3" fill="#141414"/>
<circle cx="97" cy="80" r="3" fill="#141414"/>
</svg>
