<svg width="172" height="172" viewBox="0 0 172 172" fill="none" xmlns="http://www.w3.org/2000/svg">
<path d="M157.858 71.8579C165.668 79.6683 165.668 92.3316 157.858 100.142L100.142 157.858C92.3317 165.668 79.6684 165.668 71.8579 157.858L14.1421 100.142C6.33166 92.3317 6.33165 79.6684 14.1421 71.8579L71.8579 14.1421C79.6683 6.33166 92.3316 6.33165 100.142 14.1421L157.858 71.8579Z" fill="#F58529"/>
<path d="M75.5567 109.172C69.1152 109.172 64.0787 107.377 60.4472 103.789C56.8157 100.201 55 95.078 55 88.4203V63H65.5053V88.0312C65.5053 92.3544 66.3916 95.4671 68.1641 97.3693C69.9366 99.2715 72.4224 100.223 75.6216 100.223C78.8207 100.223 81.3066 99.2715 83.0791 97.3693C84.8516 95.4671 85.7378 92.3544 85.7378 88.0312V63H96.1135V88.4203C96.1135 95.078 94.2977 100.201 90.6663 103.789C87.0348 107.377 81.9983 109.172 75.5567 109.172Z" fill="white"/>
<path d="M106.495 108.393V63H117V108.393H106.495Z" fill="white"/>
</svg>
