<svg width="20" height="20" viewBox="0 0 20 20" fill="none" xmlns="http://www.w3.org/2000/svg">
<path d="M10.2 5.2C8.87392 5.2 7.60215 5.72678 6.66447 6.66446C5.72679 7.60215 5.2 8.87392 5.2 10.2C5.2 11.5261 5.72679 12.7978 6.66447 13.7355C7.60215 14.6732 8.87392 15.2 10.2 15.2C11.5261 15.2 12.7979 14.6732 13.7355 13.7355C14.6732 12.7978 15.2 11.5261 15.2 10.2C15.2 8.87392 14.6732 7.60215 13.7355 6.66446C12.7979 5.72678 11.5261 5.2 10.2 5.2V5.2ZM10.2 13.4472C9.33851 13.4472 8.5123 13.105 7.90313 12.4958C7.29396 11.8866 6.95173 11.0604 6.95173 10.1989C6.95173 9.33742 7.29396 8.51121 7.90313 7.90204C8.5123 7.29287 9.33851 6.95065 10.2 6.95065C11.0615 6.95065 11.8877 7.29287 12.4969 7.90204C13.106 8.51121 13.4483 9.33742 13.4483 10.1989C13.4483 11.0604 13.106 11.8866 12.4969 12.4958C11.8877 13.105 11.0615 13.4472 10.2 13.4472V13.4472Z" fill="white"/>
<path d="M15.2 6.00001C15.8627 6.00001 16.4 5.46275 16.4 4.80001C16.4 4.13726 15.8627 3.60001 15.2 3.60001C14.5373 3.60001 14 4.13726 14 4.80001C14 5.46275 14.5373 6.00001 15.2 6.00001Z" fill="white"/>
<path d="M19.4702 3.44422C19.2131 2.7813 18.8202 2.17929 18.3167 1.67671C17.8131 1.17414 17.21 0.78207 16.546 0.525615C15.7689 0.234372 14.948 0.0768919 14.1182 0.0598801C13.0486 0.0133066 12.7099 0 9.99778 0C7.28565 0 6.93803 -1.11536e-07 5.87739 0.0598801C5.04819 0.0760221 4.22785 0.233535 3.4518 0.525615C2.78758 0.781771 2.18432 1.17373 1.68074 1.67635C1.17715 2.17896 0.78435 2.78113 0.527543 3.44422C0.235789 4.22002 0.0784257 5.03974 0.0621946 5.86826C0.014438 6.93502 0 7.27323 0 9.98226C0 12.6902 -8.27475e-09 13.035 0.0621946 14.0963C0.0788538 14.9257 0.235451 15.7441 0.527543 16.5214C0.785071 17.1843 1.17825 17.7862 1.68196 18.2887C2.18567 18.7913 2.78883 19.1834 3.45291 19.44C4.22749 19.743 5.04817 19.9117 5.87961 19.939C6.94913 19.9856 7.28787 20 10 20C12.7121 20 13.0598 20 14.1204 19.939C14.9501 19.9222 15.771 19.7651 16.5482 19.4744C17.2121 19.2173 17.815 18.8249 18.3185 18.3222C18.822 17.8195 19.215 17.2175 19.4725 16.5547C19.7645 15.7784 19.9211 14.9601 19.9378 14.1306C19.9856 13.0639 20 12.7257 20 10.0166C20 7.30761 20 6.96385 19.9378 5.90264C19.9249 5.0624 19.7667 4.2307 19.4702 3.44422V3.44422ZM18.1175 14.0142C18.1103 14.6533 17.9935 15.2864 17.7721 15.886C17.6053 16.3172 17.35 16.7088 17.0225 17.0356C16.695 17.3623 16.3027 17.617 15.8707 17.7833C15.2768 18.0034 14.6494 18.12 14.016 18.1282C12.9609 18.177 12.6633 18.1892 9.9578 18.1892C7.25011 18.1892 6.97357 18.1892 5.89849 18.1282C5.26536 18.1205 4.6383 18.0038 4.04487 17.7833C3.61138 17.6181 3.21746 17.3638 2.88859 17.037C2.55973 16.7102 2.30324 16.318 2.13572 15.886C1.91742 15.2928 1.80066 14.6672 1.79032 14.0353C1.74256 12.9818 1.73145 12.6846 1.73145 9.98337C1.73145 7.28099 1.73145 7.00488 1.79032 5.93036C1.79749 5.29166 1.91432 4.65893 2.13572 4.05966C2.47446 3.18474 3.16859 2.49612 4.04487 2.16123C4.63859 1.94183 5.26547 1.8252 5.89849 1.81637C6.95469 1.76868 7.25122 1.75538 9.9578 1.75538C12.6644 1.75538 12.942 1.75538 14.016 1.81637C14.6495 1.82398 15.2769 1.94064 15.8707 2.16123C16.3027 2.32787 16.695 2.58284 17.0224 2.90977C17.3498 3.2367 17.6052 3.62838 17.7721 4.05966C17.9904 4.65286 18.1072 5.27851 18.1175 5.9104C18.1653 6.96496 18.1775 7.26103 18.1775 9.96341C18.1775 12.6647 18.1775 12.9552 18.1297 14.0153H18.1175V14.0142Z" fill="white"/>
</svg>
