<svg width="21" height="20" viewBox="0 0 21 20" fill="none" xmlns="http://www.w3.org/2000/svg">
<path d="M4.77148 6.49864V20H0.259766V6.49864H4.77148ZM5.05859 2.3297C5.06771 2.99273 4.83757 3.54678 4.36816 3.99183C3.89876 4.43688 3.28125 4.6594 2.51562 4.6594H2.48828C1.74089 4.6594 1.13932 4.43688 0.683594 3.99183C0.227865 3.54678 0 2.99273 0 2.3297C0 1.65758 0.234701 1.10127 0.704102 0.660763C1.1735 0.220254 1.78646 0 2.54297 0C3.29948 0 3.9056 0.220254 4.36133 0.660763C4.81706 1.10127 5.04948 1.65758 5.05859 2.3297ZM21 12.2616V20H16.502V12.7793C16.502 11.8256 16.3174 11.0786 15.9482 10.5381C15.5791 9.99773 15.0026 9.72752 14.2188 9.72752C13.6445 9.72752 13.1637 9.8842 12.7764 10.1975C12.389 10.5109 12.0996 10.8992 11.9082 11.3624C11.8079 11.6349 11.7578 12.0027 11.7578 12.4659V20H7.25977C7.27799 16.376 7.28711 13.4378 7.28711 11.1853C7.28711 8.93279 7.28255 7.58856 7.27344 7.15259L7.25977 6.49864H11.7578V8.46049H11.7305C11.9128 8.16985 12.0996 7.91553 12.291 7.69755C12.4824 7.47956 12.7399 7.24341 13.0635 6.9891C13.387 6.73479 13.7835 6.53724 14.2529 6.39646C14.7223 6.25568 15.2441 6.18529 15.8184 6.18529C17.377 6.18529 18.6302 6.70073 19.5781 7.73161C20.526 8.76249 21 10.2725 21 12.2616Z" fill="white"/>
</svg>
